HIERARCHY
ROOT Hips
{
  OFFSET 0.000000 0.000000 0.000000
  CHANNELS 6 Xposition Yposition Zposition Xrotation Yrotation Zrotation
  JOINT Spine
  {
    OFFSET 0.863387 -21.960049 -9.813075
    CHANNELS 3 Xrotation Yrotation Zrotation
    JOINT Chest
    {
      OFFSET 0.863387 -21.960049 -9.813075
      CHANNELS 3 Xrotation Yrotation Zrotation
      JOINT Neck
      {
        OFFSET -5.142624 -12.687886 -11.636678
        CHANNELS 3 Xrotation Yrotation Zrotation
        JOINT Head
        {
          OFFSET -4.045376 6.611234 -9.455304
          CHANNELS 3 Xrotation Yrotation Zrotation
          End Site
          {
            OFFSET 0.0 5.0 2.0
          }
        }
      }
      JOINT LeftShoulder
      {
        OFFSET 15.577370 0.287953 -4.298819
        CHANNELS 3 Xrotation Yrotation Zrotation
        JOINT LeftArm
        {
          OFFSET 11.816022 21.671087 -5.251987
          CHANNELS 3 Xrotation Yrotation Zrotation
          JOINT LeftForeArm
          {
            OFFSET -14.813976 11.614788 -13.696364
            CHANNELS 3 Xrotation Yrotation Zrotation
            JOINT LeftHand
            {
              OFFSET -5.687378 1.840689 -2.898664
              CHANNELS 3 Xrotation Yrotation Zrotation
              End Site
              {
                OFFSET -3.0 0.0 2.0
              }
            }
          }
        }
      }
      JOINT RightShoulder
      {
        OFFSET -15.577370 -0.287953 4.298819
        CHANNELS 3 Xrotation Yrotation Zrotation
        JOINT RightArm
        {
          OFFSET -3.449842 23.133916 -3.360027
          CHANNELS 3 Xrotation Yrotation Zrotation
          JOINT RightForeArm
          {
            OFFSET -3.909147 7.979488 -23.481274
            CHANNELS 3 Xrotation Yrotation Zrotation
            JOINT RightHand
            {
              OFFSET 5.000000 0.000000 0.000000
              CHANNELS 3 Xrotation Yrotation Zrotation
              End Site
              {
                OFFSET 3.0 0.0 2.0
              }
            }
          }
        }
      }
    }
  }
  JOINT LeftUpLeg
  {
    OFFSET 11.198483 0.712783 -2.441644
    CHANNELS 3 Xrotation Yrotation Zrotation
    JOINT LeftLeg
    {
      OFFSET -1.544884 42.850295 2.000000
      CHANNELS 3 Xrotation Yrotation Zrotation
      JOINT LeftFoot
      {
        OFFSET 4.902850 31.674799 17.890372
        CHANNELS 3 Xrotation Yrotation Zrotation
        JOINT LeftToeBase
        {
          OFFSET 1.366001 12.060863 -11.667534
          CHANNELS 3 Xrotation Yrotation Zrotation
          End Site
          {
            OFFSET 0.0 -1.0 3.0
          }
        }
      }
    }
  }
  JOINT RightUpLeg
  {
    OFFSET -11.198483 -0.712783 2.441644
    CHANNELS 3 Xrotation Yrotation Zrotation
    JOINT RightLeg
    {
      OFFSET -4.278909 37.814860 2.000000
      CHANNELS 3 Xrotation Yrotation Zrotation
      JOINT RightFoot
      {
        OFFSET 5.403972 33.123335 19.167209
        CHANNELS 3 Xrotation Yrotation Zrotation
        JOINT RightToeBase
        {
          OFFSET -3.767241 13.109148 -8.921333
          CHANNELS 3 Xrotation Yrotation Zrotation
          End Site
          {
            OFFSET 0.0 -1.0 3.0
          }
        }
      }
    }
  }
}
MOTION
Frames: 12
Frame Time: 0.066667
0.000000 0.000000 0.000000 0.969140 -4.459149 3.789837 -7.066567 -1.012636 1.981312 1.396931 -13.140459 6.896251 -11.586105 -15.751753 -3.981565 0.000000 0.000000 0.000000 0.497741 0.852794 4.645392 -9.532384 -16.340116 -1.831542 -5.081093 -16.335154 0.199926 0.000000 0.000000 0.000000 6.060233 2.190074 14.483597 14.712540 -8.625496 -6.718172 27.178255 50.153049 54.639731 0.000000 0.000000 0.000000 -1.799285 0.144343 -6.740999 6.873467 2.100727 -4.972358 81.564842 -6.573070 -8.896573 0.000000 0.000000 0.000000 -0.048600 -0.551700 10.490881 4.261860 -3.974877 5.137437 62.616596 14.754966 26.547000 0.000000 0.000000 0.000000
0.000000 0.000000 0.000000 0.775899 -4.418694 2.725368 -6.178256 0.048330 -0.744785 1.091817 -11.890182 4.889930 -17.106427 -15.761668 -1.143399 0.000000 0.000000 0.000000 -1.048747 0.927519 1.381808 -4.408104 -16.365918 -7.202778 -1.231681 -14.277731 -5.219864 0.000000 0.000000 0.000000 -5.570711 1.498674 12.040040 5.507428 -12.541664 -5.786078 20.233993 60.040920 34.321445 0.000000 0.000000 0.000000 -3.764762 -0.015998 -8.659360 8.459312 2.430998 -5.725616 81.278968 -6.932071 -15.207834 0.000000 0.000000 0.000000 -0.750671 -0.502667 9.096989 4.397502 -3.190179 3.863270 63.010378 14.762213 27.503604 0.000000 0.000000 0.000000
0.000000 0.000000 0.000000 0.591927 -3.862599 1.856698 -7.770178 0.708275 -2.730929 0.887896 -9.350110 3.578670 -16.941249 -14.400294 -0.573958 0.000000 0.000000 0.000000 1.464361 -0.580216 0.954341 1.220003 -13.771911 -11.729961 2.908023 -10.149111 -10.699163 0.000000 0.000000 0.000000 -9.703864 0.749805 9.539802 -2.941775 -12.783452 -3.447321 9.672505 63.913368 15.447978 0.000000 0.000000 0.000000 -5.122470 -0.164269 -10.648825 7.492203 2.245563 -5.295737 81.263458 -6.965818 -15.786564 0.000000 0.000000 0.000000 0.963561 -0.387212 8.129949 6.304205 -2.710435 2.501205 59.275155 15.039307 29.815244 0.000000 0.000000 0.000000
0.000000 0.000000 0.000000 0.303852 -3.384756 0.458757 -7.387293 1.502054 -4.794016 0.417898 -8.306317 1.257846 -16.127659 -12.845698 -0.214454 0.000000 0.000000 0.000000 1.661483 -1.372983 -2.131984 1.124921 -11.693381 -10.207332 3.072544 -6.850799 -9.582631 0.000000 0.000000 0.000000 -8.661781 0.595613 8.536492 -9.860218 -12.088764 -1.366879 0.180667 64.991740 0.283635 0.000000 0.000000 0.000000 -5.233997 -0.176472 -13.089062 9.366204 1.118543 -3.903860 80.119572 -6.974065 -14.547779 0.000000 0.000000 0.000000 -0.763497 -0.462553 8.208073 7.938798 -1.425040 0.108637 60.532239 14.831647 26.717593 0.000000 0.000000 0.000000
0.000000 0.000000 0.000000 0.040407 -3.366210 -0.923351 -6.621150 1.936696 -5.762830 -0.016059 -6.971747 -0.673423 -16.295718 -12.495859 0.037978 0.000000 0.000000 0.000000 2.027692 -1.613804 -2.373822 1.894378 -11.114813 -10.680590 3.425206 -6.883290 -10.258814 0.000000 0.000000 0.000000 -9.708854 0.344378 7.786233 -13.968365 -9.838537 0.183396 -4.479957 67.821466 -6.660070 0.000000 0.000000 0.000000 -5.384048 -0.200116 -15.345993 9.344906 -0.239177 -1.888235 79.403178 -7.031185 -14.661177 0.000000 0.000000 0.000000 -3.698913 -0.567578 7.467955 6.416038 -0.532290 -0.838457 59.075804 14.638725 22.250519 0.000000 0.000000 0.000000
0.000000 0.000000 0.000000 -0.152730 -3.502969 -1.998016 -4.618824 2.736796 -7.275002 -0.469417 -6.829828 -2.717488 -12.636192 -13.762258 -2.399704 0.000000 0.000000 0.000000 -1.766057 0.341578 -2.400317 3.256993 -11.348031 -12.414665 3.908408 -8.971256 -12.043540 0.000000 0.000000 0.000000 -11.483636 0.082155 7.313250 -15.863048 -9.028284 0.795783 7.342276 68.018126 10.863909 0.000000 0.000000 0.000000 -5.881511 -0.286505 -15.562609 7.399229 -0.254734 -1.431239 81.471558 -6.830142 -13.597187 0.000000 0.000000 0.000000 -4.564222 -0.599747 6.764222 5.984574 -0.856715 -0.231649 58.904276 14.579671 21.205304 0.000000 0.000000 0.000000
0.000000 0.000000 0.000000 -0.270411 -3.975262 -2.841659 -4.647020 2.418670 -6.491684 -0.669359 -6.941034 -3.650244 -12.771455 -15.443271 -3.201011 0.000000 0.000000 0.000000 -2.963994 1.559013 -0.243527 -0.761381 -10.567235 -7.309483 2.553754 -8.263431 -9.249686 0.000000 0.000000 0.000000 -11.155198 0.488753 8.859517 -15.389496 -14.103038 -0.303956 1.953235 61.020539 3.313973 0.000000 0.000000 0.000000 -5.995279 -0.305531 -15.442450 5.981132 -0.163635 -1.243860 80.879774 -7.143240 -18.246473 0.000000 0.000000 0.000000 -3.973730 -0.540918 5.209894 6.686903 -1.643316 0.775193 58.341484 14.490617 19.850662 0.000000 0.000000 0.000000
0.000000 0.000000 0.000000 -0.311703 -4.079038 -3.115544 -4.639697 2.079635 -5.645736 -0.555621 -7.714044 -3.297186 -12.682474 -12.927502 -1.941303 0.000000 0.000000 0.000000 -6.787500 4.094760 1.035194 -10.647816 -12.802732 1.537439 -3.699345 -6.205675 3.120231 0.000000 0.000000 0.000000 -10.813113 -0.276770 5.591247 -16.508711 -17.832629 -0.682268 -5.642309 57.563752 -10.251886 0.000000 0.000000 0.000000 -6.178702 -0.332238 -14.791336 3.386054 0.672711 -1.997830 80.593027 -7.301372 -20.313897 0.000000 0.000000 0.000000 3.919185 0.118929 3.724057 8.591258 -3.041851 2.288151 55.634562 14.507130 20.802758 0.000000 0.000000 0.000000
0.000000 0.000000 0.000000 -0.336492 -3.920883 -3.171319 -5.186418 1.925140 -5.386818 -0.622683 -7.899288 -3.655741 -13.910263 -17.611131 -3.702762 0.000000 0.000000 0.000000 -7.968394 4.798600 1.100857 -16.994356 -10.544525 9.055327 -7.480062 -2.522678 12.178408 0.000000 0.000000 0.000000 -11.103315 -0.625713 4.290169 -17.582944 -18.569297 -0.480157 -5.265617 56.244906 -9.835049 0.000000 0.000000 0.000000 -6.104801 -0.317476 -14.434639 3.170857 0.829517 -2.210682 80.182602 -7.291627 -19.430864 0.000000 0.000000 0.000000 9.711048 0.684410 3.032505 10.379403 -3.830243 2.862272 53.380197 14.760183 23.596118 0.000000 0.000000 0.000000
0.000000 0.000000 0.000000 -0.354639 -3.527051 -3.076634 -5.385462 0.991585 -3.058838 -0.406727 -7.924949 -2.638712 -15.017969 -17.909455 -3.261476 0.000000 0.000000 0.000000 -10.502552 7.598783 4.580663 -20.761495 -10.554595 12.432667 -10.451547 -0.791386 18.622101 0.000000 0.000000 0.000000 -11.828224 0.310160 8.340461 -15.675253 -19.203027 -1.202862 -2.559669 52.495513 -5.188323 0.000000 0.000000 0.000000 -3.896104 0.033962 -13.707879 1.272459 1.369290 -2.712990 80.300252 -7.244789 -18.911960 0.000000 0.000000 0.000000 16.679826 1.503282 2.035534 10.909428 -6.727256 6.687322 52.294507 15.352579 28.795868 0.000000 0.000000 0.000000
0.000000 0.000000 0.000000 -0.184935 -4.518436 -2.635975 -7.043500 -0.167622 -0.272650 0.038089 -7.359248 -0.466868 -14.492162 -18.080216 -3.625565 0.000000 0.000000 0.000000 -11.944544 10.309309 8.914810 -20.092276 -11.451660 11.284025 -11.705729 -8.340820 15.302268 0.000000 0.000000 0.000000 -3.633211 1.836110 13.512110 -6.530700 -17.581551 -3.751791 12.737224 50.382099 26.697279 0.000000 0.000000 0.000000 0.357824 0.627930 -12.253363 1.979105 1.697245 -3.426370 81.574503 -7.094249 -18.633233 0.000000 0.000000 0.000000 15.770145 1.414731 2.029900 9.921145 -8.826625 9.970014 58.115891 14.926644 26.890719 0.000000 0.000000 0.000000
0.000000 0.000000 0.000000 0.152116 -6.174349 -1.481792 -7.413107 -1.214509 2.509285 0.588191 -9.088540 2.071842 -14.058725 -16.725453 -3.180753 0.000000 0.000000 0.000000 -8.403289 9.589708 13.356274 -29.629430 -20.484207 14.501568 -15.926088 -18.953295 15.424976 0.000000 0.000000 0.000000 9.211142 2.408567 17.101805 14.252793 -12.834944 -8.564378 22.027963 45.461006 49.838371 0.000000 0.000000 0.000000 -0.422439 0.424603 -10.174840 5.061476 1.724004 -4.061461 82.013820 -7.042515 -18.510971 0.000000 0.000000 0.000000 8.419202 0.359856 4.695333 11.818766 -9.411334 9.941292 65.896731 14.652658 24.305724 0.000000 0.000000 0.000000
